<svg width="224" height="24" viewBox="0 0 224 24" fill="none" xmlns="http://www.w3.org/2000/svg">
<path fill-rule="evenodd" clip-rule="evenodd" d="M1.81921 0.00488281H6.66241L13.5888 12.0049L20.5152 24.0001H15.6576L8.74081 12.0049L1.81921 0.00488281ZM6.9168 24.0001L0 12.0049H4.848L11.7792 24.0001H6.9168ZM15.4032 0.00488281H10.56L17.4816 12.0049L24.3984 24.0001H29.256L22.3296 12.0049L15.4032 0.00488281ZM24.144 0.00488281L31.0704 12.0049H26.2176L19.3008 0.00488281H24.144ZM68.3424 22.9968C69.4597 22.3942 70.3897 21.4958 71.0304 20.4C71.7075 19.2213 72.0509 17.8806 72.024 16.5216C72.0534 15.1665 71.7221 13.8281 71.064 12.6432C70.4391 11.5483 69.5216 10.6491 68.4144 10.0464C67.2558 9.44393 65.9691 9.12939 64.6632 9.12939C63.3573 9.12939 62.0706 9.44393 60.912 10.0464C59.8044 10.6469 58.8879 11.5468 58.2672 12.6432C57.6093 13.8281 57.278 15.1666 57.3072 16.5216C57.2846 17.8759 57.6155 19.2126 58.2672 20.4C58.8703 21.4917 59.7686 22.3917 60.8592 22.9968C62.0016 23.6167 63.2843 23.9324 64.584 23.9136C65.8937 23.9268 67.1859 23.6116 68.3424 22.9968ZM60.8448 16.5216C60.7652 15.3478 61.1456 14.1892 61.9056 13.2912C62.2489 12.9254 62.665 12.6356 63.1272 12.4405C63.5893 12.2454 64.0872 12.1493 64.5888 12.1584C65.0937 12.1506 65.5948 12.2472 66.0606 12.4422C66.5265 12.6371 66.9471 12.9261 67.296 13.2912C67.6834 13.7306 67.9803 14.2421 68.1697 14.7964C68.3592 15.3507 68.4374 15.937 68.4 16.5216C68.4271 17.3537 68.2438 18.1791 67.8672 18.9216C67.5437 19.547 67.0427 20.0629 66.4272 20.4048C65.8389 20.7267 65.1778 20.892 64.5072 20.8848C64.0181 20.8878 63.5338 20.7881 63.0856 20.5921C62.6375 20.3962 62.2355 20.1083 61.9056 19.7472C61.1539 18.8464 60.7744 17.6927 60.8448 16.5216ZM74.7408 2.49609H78.2016V23.6641H74.7408V2.49609ZM95.832 23.7215V9.40312H92.304V11.6255L92.1648 11.4383C91.6546 10.7603 90.9984 10.2058 90.2448 9.81592C89.3802 9.37114 88.4185 9.14845 87.4464 9.16792C86.2768 9.16238 85.1287 9.48141 84.1296 10.0895C83.1227 10.7158 82.31 11.61 81.7824 12.6719C81.1921 13.8646 80.8958 15.1813 80.9184 16.5119C80.8918 17.8599 81.1881 19.1946 81.7824 20.4047C82.3107 21.4778 83.1245 22.3846 84.1344 23.0255C85.1185 23.6445 86.2598 23.9678 87.4224 23.9567C88.3968 23.9728 89.36 23.7469 90.2256 23.2991C90.9886 22.9061 91.6468 22.3368 92.1456 21.6383L92.2848 21.4319V23.7215H95.832ZM91.776 18.8879C91.4439 19.5095 90.9453 20.0264 90.336 20.3807C89.7446 20.7209 89.0742 20.8997 88.392 20.8991C87.7153 20.9006 87.0512 20.7163 86.472 20.3663C85.8618 19.9963 85.3639 19.4669 85.032 18.8351C84.6569 18.1191 84.4687 17.32 84.4848 16.5119C84.4664 15.7112 84.6549 14.9193 85.032 14.2127C85.3559 13.6052 85.8407 13.0985 86.4334 12.748C87.026 12.3975 87.7036 12.2167 88.392 12.2255C89.0742 12.225 89.7446 12.4038 90.336 12.7439C90.9465 13.0987 91.4454 13.6175 91.776 14.2415C92.1235 14.9667 92.3039 15.7606 92.3039 16.5647C92.3039 17.3689 92.1235 18.1628 91.776 18.8879ZM107.314 12.8784H106.426C105.469 12.8122 104.523 13.1087 103.776 13.7088C103.176 14.2608 102.874 15.2304 102.874 16.5888V23.7216H99.3744V9.40324H102.874V11.8512L103.018 11.616C103.463 10.8806 104.087 10.2697 104.832 9.84004C105.589 9.4141 106.445 9.19245 107.314 9.19684V12.8784ZM144.696 10.0896C143.539 9.48404 142.253 9.16772 140.947 9.16772C139.641 9.16772 138.355 9.48404 137.198 10.0896C136.09 10.6881 135.172 11.5863 134.549 12.6816C133.891 13.8685 133.56 15.2083 133.589 16.5648C133.566 17.9191 133.897 19.2558 134.549 20.4432C135.151 21.5346 136.049 22.4333 137.141 23.0352C138.281 23.6572 139.562 23.9746 140.861 23.9568C142.182 23.9734 143.486 23.6564 144.653 23.0352C145.771 22.4341 146.701 21.5353 147.341 20.4384C148.006 19.2578 148.339 17.9194 148.306 16.5648C148.334 15.2083 148.003 13.8685 147.346 12.6816C146.723 11.5863 145.805 10.6881 144.696 10.0896ZM144.178 18.9504C143.851 19.5733 143.351 20.0884 142.738 20.4336C142.15 20.7561 141.488 20.9215 140.818 20.9136C140.32 20.9253 139.826 20.8303 139.368 20.6349C138.91 20.4395 138.499 20.1483 138.163 19.7808C137.413 18.8798 137.036 17.7253 137.112 16.5552C137.112 15.1632 137.472 14.0784 138.192 13.3248C138.533 12.9579 138.949 12.6674 139.41 12.4722C139.872 12.2769 140.369 12.1815 140.87 12.192C141.376 12.1831 141.877 12.2792 142.343 12.4742C142.809 12.6692 143.229 12.9588 143.578 13.3248C143.966 13.7638 144.264 14.2752 144.454 14.8295C144.644 15.3838 144.723 15.9703 144.686 16.5552C144.718 17.3834 144.543 18.2064 144.178 18.9504ZM159.209 12.3712C158.795 12.2057 158.351 12.1299 157.906 12.1488C157.451 12.124 156.997 12.1959 156.572 12.3597C156.148 12.5236 155.763 12.7756 155.443 13.0992C154.804 13.8511 154.483 14.8217 154.546 15.8064V23.7216H151.056V9.40318H154.555V11.3424L154.694 11.1648C155.185 10.5466 155.815 10.0531 156.533 9.72478C157.305 9.3693 158.145 9.18899 158.995 9.19678C159.756 9.16642 160.515 9.29358 161.225 9.57029C161.934 9.84699 162.579 10.2673 163.118 10.8048C164.16 11.8752 164.688 13.3872 164.688 15.3072V23.7216H161.189V15.816C161.252 14.8337 160.936 13.8646 160.306 13.1088C159.996 12.7881 159.622 12.5366 159.209 12.3712ZM174.634 12.1488C175.079 12.1296 175.523 12.2052 175.937 12.3707C176.351 12.5362 176.724 12.7878 177.034 13.1088C177.664 13.8646 177.98 14.8337 177.917 15.816V23.7216H181.426V15.3072C181.426 13.3872 180.893 11.8752 179.851 10.8048C179.312 10.2673 178.667 9.84699 177.957 9.57029C177.248 9.29358 176.489 9.16642 175.728 9.19678C174.878 9.18899 174.037 9.3693 173.266 9.72478C172.549 10.0545 171.919 10.5477 171.427 11.1648L171.288 11.3424V9.40318H167.789V23.7216H171.288V15.8064C171.225 14.8217 171.547 13.8511 172.186 13.0992C172.504 12.7779 172.887 12.5273 173.309 12.3636C173.73 12.1998 174.182 12.1267 174.634 12.1488ZM194.76 10.0465C195.818 10.6181 196.688 11.4832 197.266 12.5377C197.866 13.6788 198.167 14.954 198.139 16.2433C198.143 16.6898 198.113 17.1359 198.048 17.5777H187.45V17.6593C187.487 18.6085 187.887 19.5072 188.568 20.1697C189.238 20.7815 190.119 21.1086 191.026 21.0817C191.633 21.1127 192.236 20.9628 192.758 20.6509C193.28 20.3391 193.698 19.8792 193.958 19.3297H197.746C197.333 20.6527 196.511 21.8107 195.398 22.6369C194.145 23.5457 192.626 24.0133 191.078 23.9665C189.783 23.9841 188.506 23.6684 187.368 23.0497C186.279 22.4467 185.387 21.5415 184.8 20.4433C184.17 19.2491 183.853 17.9148 183.878 16.5649C183.851 15.2073 184.163 13.8643 184.786 12.6577C185.366 11.5728 186.25 10.6805 187.33 10.0897C188.475 9.49219 189.747 9.1766 191.04 9.16908C192.332 9.16157 193.607 9.46235 194.76 10.0465ZM187.483 15.1921V15.2833L194.501 15.2737V15.1921C194.507 14.7525 194.417 14.317 194.236 13.9163C194.055 13.5156 193.788 13.1596 193.454 12.8737C192.76 12.2934 191.878 11.9862 190.973 12.0097C190.111 11.9868 189.273 12.2902 188.626 12.8593C187.978 13.4751 187.573 14.3028 187.483 15.1921ZM211.354 10.4976C210.073 9.57838 208.523 9.11069 206.947 9.16804C205.664 9.14882 204.398 9.4666 203.275 10.0896C202.214 10.6983 201.346 11.5932 200.77 12.672C200.148 13.8753 199.837 15.2154 199.867 16.5696C199.838 17.9223 200.148 19.2607 200.77 20.4624C201.345 21.543 202.214 22.4397 203.275 23.0496C204.398 23.6716 205.664 23.9878 206.947 23.9664C208.527 24.0124 210.076 23.5198 211.339 22.5696C212.49 21.6616 213.308 20.3971 213.662 18.9744H209.875C209.395 20.2896 208.435 20.9568 206.918 20.9568C206.433 20.9747 205.951 20.8785 205.51 20.6759C205.069 20.4733 204.682 20.17 204.379 19.7904C203.706 18.8473 203.378 17.702 203.448 16.5456C203.375 15.3786 203.704 14.2219 204.379 13.2672C204.682 12.8877 205.069 12.5844 205.51 12.3818C205.951 12.1792 206.433 12.083 206.918 12.1008C207.591 12.0802 208.253 12.2734 208.81 12.6528C209.304 13.0122 209.676 13.5149 209.875 14.0928H213.662C213.32 12.6685 212.506 11.4016 211.354 10.4976ZM40.4928 21.8929C39.6714 21.2003 39.0153 20.3327 38.5728 19.3537C38.0627 18.2052 37.7994 16.9623 37.8 15.7057V15.6529H41.64V15.7057C41.6203 16.461 41.761 17.2119 42.0528 17.9089C42.3096 18.4887 42.7033 18.9977 43.2 19.3921C43.7027 19.7851 44.2787 20.0739 44.8944 20.2417C45.5751 20.425 46.2775 20.5154 46.9824 20.5105C47.6852 20.5255 48.3858 20.425 49.056 20.2129C49.5608 20.0456 50.0297 19.7851 50.4384 19.4449C50.7745 19.1521 51.0362 18.7836 51.2016 18.3697C51.3544 17.9762 51.4341 17.5581 51.4368 17.1361C51.4902 16.4631 51.2993 15.7934 50.8992 15.2497C50.5744 14.8748 50.1669 14.5806 49.7088 14.3905C48.8475 14.0609 47.9675 13.782 47.0736 13.5553C46.0704 13.2865 44.7984 12.9409 43.3584 12.5233C42.5447 12.312 41.77 11.9717 41.064 11.5153C40.5049 11.1408 40.0172 10.6694 39.624 10.1233C39.2707 9.62884 39.0104 9.07418 38.856 8.48645C38.7067 7.91277 38.6309 7.32245 38.6304 6.72965C38.5992 5.74726 38.8075 4.77202 39.2373 3.8881C39.6671 3.00418 40.3056 2.23813 41.0976 1.65605C41.8542 1.09388 42.7087 0.677207 43.6176 0.427255C45.5853 -0.128702 47.6714 -0.107042 49.6272 0.489654C50.5808 0.770173 51.4709 1.23314 52.248 1.85285C53.0016 2.4781 53.6108 3.25923 54.0336 4.14245C54.4925 5.12752 54.7191 6.20479 54.696 7.29125V7.34405H50.856V7.29125C50.76 5.85605 50.2944 4.82885 49.4784 4.23845C48.5458 3.6119 47.4377 3.29914 46.3152 3.34565C45.8685 3.34806 45.4231 3.39469 44.9856 3.48485C44.5501 3.57847 44.1321 3.74048 43.7472 3.96485C43.3767 4.18719 43.0615 4.49084 42.8256 4.85285C42.5709 5.27313 42.4441 5.7585 42.4608 6.24965C42.4403 6.59067 42.4907 6.93222 42.6089 7.25277C42.727 7.57332 42.9103 7.8659 43.1472 8.11205C43.6633 8.59217 44.2872 8.94118 44.9664 9.12965L45.8736 9.37926C46.4208 9.53765 47.0352 9.71525 47.712 9.90246L49.6944 10.4593C50.328 10.6369 50.7936 10.7713 51.0768 10.8577C51.7401 11.0699 52.362 11.3946 52.9152 11.8177C53.4237 12.2085 53.8661 12.6785 54.2256 13.2097C54.5735 13.7248 54.8376 14.2918 55.008 14.8897C55.1768 15.4715 55.2624 16.0742 55.2624 16.6801C55.2948 17.817 55.0423 18.944 54.528 19.9585C54.0648 20.8353 53.4083 21.5953 52.608 22.1809C51.7828 22.7658 50.857 23.1937 49.8768 23.4433C48.8595 23.7075 47.8127 23.8414 46.7616 23.8417C45.5958 23.8475 44.4351 23.6858 43.3152 23.3617C42.2846 23.0683 41.3244 22.5686 40.4928 21.8929ZM221.626 23.7023H223.848V20.7743H222.226C221.784 20.8146 221.344 20.6916 220.987 20.4287C220.85 20.2794 220.746 20.1033 220.681 19.9116C220.616 19.72 220.591 19.5168 220.608 19.3151V12.2351H223.848V9.38868H220.608V5.87988L217.08 7.16148V9.38868H215.357V12.2351H217.08V19.2863C217.08 22.2575 218.568 23.7023 221.626 23.7023ZM130.57 19.0033L130.546 19.0417C129.758 20.4071 128.654 21.5638 127.327 22.4148C126 23.2659 124.488 23.7864 122.918 23.9329H122.654C122.251 23.9857 121.906 23.9857 121.56 23.9857C119.502 24.0119 117.475 23.4865 115.69 22.4641C113.953 21.4485 112.528 19.978 111.566 18.2113C110.541 16.3071 110.021 14.1721 110.054 12.0097C110.025 9.8418 110.554 7.70291 111.59 5.79846C112.549 4.02997 113.976 2.55886 115.714 1.54565C117.498 0.520051 119.526 -0.00713087 121.584 0.0192545C121.93 0.0192545 122.28 0.0384539 122.678 0.0720539H122.933C124.504 0.215259 126.018 0.73331 127.348 1.58272C128.677 2.43214 129.784 3.58812 130.574 4.95365V4.97765C130.714 5.20326 130.838 5.42405 130.949 5.63525L130.992 5.71685C131.233 6.17053 131.441 6.64048 131.616 7.12325H127.186C126.737 6.09558 125.985 5.22964 125.03 4.64165C123.979 4.00687 122.773 3.67466 121.546 3.68165C120.193 3.65589 118.861 4.01549 117.706 4.71845C116.575 5.42445 115.669 6.43858 115.094 7.64166C114.456 9.00777 114.141 10.5023 114.173 12.0097C114.143 13.5029 114.454 14.9834 115.08 16.3393C115.657 17.5406 116.562 18.554 117.691 19.2625C118.848 19.9635 120.179 20.3229 121.531 20.2993C122.759 20.3035 123.964 19.9715 125.016 19.3393C125.975 18.7535 126.731 17.8872 127.181 16.8577H131.611C131.437 17.3421 131.228 17.8137 130.987 18.2689L130.944 18.3505C130.834 18.5569 130.709 18.7777 130.57 19.0033Z" fill="black"/>
</svg>